<!DOCTYPE svg PUBLIC "-//W3C//DTD SVG 1.1//EN" "http://www.w3.org/Graphics/SVG/1.1/DTD/svg11.dtd">
<!-- Uploaded to: SVG Repo, www.svgrepo.com, Transformed by: SVG Repo Mixer Tools -->
<svg width="800px" height="800px" viewBox="0 0 64 64" id="icons" xmlns="http://www.w3.org/2000/svg" fill="#000000">
<g id="SVGRepo_bgCarrier" stroke-width="0"/>
<g id="SVGRepo_tracerCarrier" stroke-linecap="round" stroke-linejoin="round"/>
<g id="SVGRepo_iconCarrier">
<defs>
<style>.cls-1{fill:#ffffff;}</style>
</defs>
<title/>
<path class="cls-1" d="M52,7H12a6,6,0,0,0-6,6V51a6,6,0,0,0,6,6H52a6,6,0,0,0,6-6V13A6,6,0,0,0,52,7Zm2,44a2,2,0,0,1-2,2H12a2,2,0,0,1-2-2V13a2,2,0,0,1,2-2H52a2,2,0,0,1,2,2Z"/>
<path class="cls-1" d="M45,29a2,2,0,0,0,0-4H22.83l2.58-2.59a2,2,0,0,0-2.82-2.82l-6,6a2,2,0,0,0-.44,2.18A2,2,0,0,0,18,29Z"/>
<path class="cls-1" d="M47,36H20a2,2,0,0,0,0,4H42.17l-2.58,2.59a2,2,0,1,0,2.82,2.82l6-6a2,2,0,0,0,.44-2.18A2,2,0,0,0,47,36Z"/>
</g>
</svg>